<svg width="125" height="125" viewBox="0 0 125 125" fill="none" xmlns="http://www.w3.org/2000/svg">
<path d="M102.272 54.5161H94.2368V62.5508H102.272V54.5161Z" fill="black"/>
<path d="M110.307 54.5161H102.271V62.5508H110.307V54.5161Z" fill="black"/>
<path d="M62.0936 54.5161H54.0571V62.5508H62.0936V54.5161Z" fill="black"/>
<path d="M54.0571 54.5161H46.0229V62.5508H54.0571V54.5161Z" fill="black"/>
<path d="M102.272 46.4814H94.2368V54.5156H102.272V46.4814Z" fill="black"/>
<path d="M110.307 46.4814H102.271V54.5156H110.307V46.4814Z" fill="black"/>
<path d="M62.0936 46.4814H54.0571V54.5156H62.0936V46.4814Z" fill="black"/>
<path d="M54.0571 46.4814H46.0229V54.5156H54.0571V46.4814Z" fill="black"/>
<path d="M110.308 46.4812V38.4465H102.272V30.4082H86.2022V38.4465H78.1657V62.5507H86.2022V70.5855H102.272V62.5507H94.2369V46.4818H110.308V46.4812ZM54.0573 30.4082H37.9872V38.4465H29.9507V62.5507H37.9872V70.5855H54.0579V62.5507H46.0237V46.4818H62.0944V38.4471H54.0579L54.0573 30.4082Z" fill="white"/>
<path d="M110.307 54.5161V62.5508H102.271V70.5856H86.2019V62.5508H78.1654V38.4466H86.2019V30.4083H102.271V22.3736H94.2367V14.3388H78.1654V6.30054H46.0229V14.3388H29.9499V22.3736H21.9145V30.4083H13.8798V54.5161H5.84326V118.801H13.8798V110.766H21.9145V102.728H29.9499V110.766H37.9864V118.801H54.057V102.728H70.1289V118.801H86.2019V110.766H94.2367V102.728H102.271V110.766H110.307V118.801H118.343V54.5161H110.307ZM62.0936 62.5508H54.057V70.5856H37.987V62.5508H29.9504V38.4466H37.987V30.4083H54.0576V38.4466H62.0941L62.0936 62.5508ZM110.307 38.4466V30.4083H102.271V38.4466H110.307Z" fill="#E58725"/>
</svg>
