<svg width="113" height="113" viewBox="0 0 113 113" fill="none" xmlns="http://www.w3.org/2000/svg">
<g clip-path="url(#clip0_3_28268)">
<path d="M80.7477 58.8763L76.0361 56.3247L73.4853 61.0348L78.1968 63.5864L80.7477 58.8763Z" fill="black"/>
<path d="M85.4582 61.427L80.748 58.8762L78.1972 63.5864L82.9074 66.1372L85.4582 61.427Z" fill="black"/>
<path d="M57.1939 46.1203L52.4834 43.5693L49.9326 48.2795L54.6431 50.8305L57.1939 46.1203Z" fill="black"/>
<path d="M52.4846 43.5697L47.7734 41.0183L45.2226 45.7285L49.9338 48.2798L52.4846 43.5697Z" fill="black"/>
<path d="M83.2994 54.1661L78.5879 51.6145L76.0371 56.3246L80.7486 58.8762L83.2994 54.1661Z" fill="black"/>
<path d="M88.009 56.7168L83.2988 54.166L80.748 58.8762L85.4581 61.427L88.009 56.7168Z" fill="black"/>
<path d="M59.7447 41.4104L55.0342 38.8594L52.4834 43.5695L57.1938 46.1205L59.7447 41.4104Z" fill="black"/>
<path d="M55.0354 38.8595L50.3242 36.3081L47.7734 41.0182L52.4846 43.5696L55.0354 38.8595Z" fill="black"/>
<path d="M88.0091 56.717L90.5601 52.0065L85.85 49.4557L88.4019 44.7435L78.9803 39.6411L76.4283 44.3533L71.7175 41.8021L64.0649 55.9328L68.7757 58.484L66.2238 63.1962L75.6454 68.2986L78.1974 63.5864L73.4858 61.0348L78.5875 51.6146L88.0091 56.717ZM60.1374 29.437L50.7165 24.335L48.1645 29.0472L43.4537 26.496L35.8011 40.6268L40.5119 43.1779L37.9601 47.8898L47.3815 52.992L49.9334 48.2798L45.2222 45.7284L50.3239 36.3081L59.7455 41.4105L62.2965 36.7001L57.5861 34.1491L60.1378 29.4372L60.1374 29.437Z" fill="white"/>
<path d="M85.4583 61.427L82.9074 66.1371L78.1973 63.5863L75.6454 68.2985L66.2237 63.1961L68.7756 58.4839L64.0648 55.9327L71.7175 41.8019L76.4283 44.3531L78.9802 39.6409L88.4019 44.7433L90.9525 40.0335L86.241 37.4819L88.7916 32.7721L79.3707 27.6701L81.9215 22.96L63.0785 12.7554L60.5277 17.4655L51.1067 12.3635L48.5559 17.0737L43.8458 14.5228L41.2951 19.2326L36.5843 16.6814L28.9305 30.8143L24.2193 28.2629L3.81074 65.9478L8.52192 68.4992L11.0727 63.789L15.7836 66.3402L18.3355 61.628L23.0456 64.1788L20.4937 68.891L25.2045 71.4422L22.6537 76.1524L32.075 81.2546L37.1778 71.8322L46.5994 76.9346L41.4967 86.357L50.9177 91.459L53.4685 86.7488L58.1786 89.2996L60.7305 84.5874L65.4421 87.139L62.8901 91.8512L67.6003 94.402L65.0495 99.1122L69.7606 101.664L90.1694 63.9783L85.4583 61.427ZM54.6435 50.8305L49.933 48.2795L47.3811 52.9917L37.9601 47.8897L40.512 43.1775L35.8012 40.6263L43.4539 26.4955L48.1647 29.0467L50.7166 24.3345L60.138 29.4367L57.586 34.1489L62.2965 36.6999L54.6438 50.8307L54.6435 50.8305ZM90.5601 52.0063L93.112 47.2941L88.4019 44.7433L85.8499 49.4555L90.5601 52.0063Z" fill="#ED2024"/>
</g>
<defs>
<clipPath id="clip0_3_28268">
<rect width="83" height="83" fill="white" transform="translate(39.5254) rotate(28.4382)"/>
</clipPath>
</defs>
</svg>
